# 3ds Max Wavefront OBJ Exporter v0.97b - (c)2007 guruware
# File Created: 17.04.2018 13:05:03

#
# object LongKnife
#

v  -1.0000 0.0000 -3.4600
v  1.0000 0.0000 -3.4600
v  1.0000 0.0000 7.5400
v  -1.0000 0.0000 7.5400
v  1.0000 1.0000 6.5400
v  1.0000 2.0000 6.5400
v  -1.0000 2.0000 6.5400
v  -1.0000 1.0000 6.5400
v  1.0000 1.0000 7.5400
v  -1.0000 1.0000 7.5400
v  1.0000 2.0000 -3.4600
v  1.0000 0.0000 -7.4600
v  -1.0000 0.0000 -7.4600
v  -1.0000 2.0000 -7.4600
v  1.0000 2.0000 -7.4600
v  -1.0000 0.0000 -4.4600
v  -1.0000 2.0000 -4.4600
v  1.7071 -0.7071 -3.4600
v  1.7071 -0.7071 -4.4600
v  1.7071 2.7071 -4.4604
v  1.7071 2.7071 -3.4600
v  1.0000 0.0000 -4.4600
v  1.0000 2.0000 -4.4604
v  -1.7071 -0.7071 -4.4600
v  -1.7071 -0.7071 -3.4600
v  -1.7071 2.7071 -3.4600
v  -1.7071 2.7071 -4.4600
v  -1.0000 2.0000 -3.4600
# 28 vertices

vn 0.0000 -1.0000 -0.0000
vn 0.0000 0.0000 1.0000
vn 0.0000 0.7071 0.7071
vn 1.0000 0.0000 -0.0000
vn 0.0000 0.0000 -1.0000
vn -1.0000 0.0000 -0.0000
vn 0.0000 1.0000 -0.0000
vn 0.0002 -0.0002 -1.0000
vn -0.0001 -0.0001 -1.0000
vn -0.0002 -0.0002 -1.0000
vn -0.0001 0.0001 -1.0000
# 11 vertex normals

vt 1.0000 0.5325 0.0000
vt 0.0000 0.5298 0.0000
vt 0.0000 0.0000 0.0000
vt 1.0000 0.0000 0.0000
vt 1.0000 0.1309 0.0000
vt 0.0000 0.1072 0.0000
vt 1.0000 0.5222 0.0000
vt 0.0000 0.6448 0.0000
vt 0.5298 0.0000 0.0000
vt 0.5158 1.0000 0.0000
vt 0.1309 1.0000 0.0000
vt 0.0000 1.0000 0.0000
vt 0.0000 0.5222 0.0000
vt 1.0000 1.0000 0.0000
vt 0.3456 0.0000 0.0000
vt 0.3312 1.0000 0.0000
vt 0.6663 0.0000 0.0000
vt 0.6667 1.0000 0.0000
vt 0.0000 0.6663 0.0000
vt 1.0000 0.6544 0.0000
vt 0.0000 0.6688 0.0000
vt 1.0000 0.6667 0.0000
vt 0.4675 0.0000 0.0000
vt 0.4713 1.0000 0.0000
vt 0.0000 0.5287 0.0000
vt 1.0000 0.5158 0.0000
vt 1.0000 0.6448 0.0000
vt 0.8928 1.0000 0.0000
# 28 texture coords

g LongKnife
f 1/1/1 2/2/1 3/3/1 
f 3/3/1 4/4/1 1/1/1 
f 5/4/2 6/5/3 7/6/3 
f 7/6/3 8/3/2 5/4/2 
f 4/3/2 3/4/2 9/7/3 
f 9/7/3 10/8/3 4/3/2 
f 2/9/4 11/10/4 6/11/4 
f 2/9/4 6/11/4 5/12/4 
f 3/3/4 2/9/4 5/12/4 
f 3/3/4 5/12/4 9/13/4 
f 12/3/5 13/4/5 14/14/5 
f 14/14/5 15/12/5 12/3/5 
f 13/3/6 16/15/6 17/16/6 
f 17/16/6 14/12/6 13/3/6 
f 18/9/4 19/17/4 20/18/4 
f 20/18/4 21/10/4 18/9/4 
f 13/14/1 12/12/1 22/19/1 
f 22/19/1 16/20/1 13/14/1 
f 15/14/7 14/12/7 17/21/7 
f 17/21/7 23/22/7 15/14/7 
f 24/15/6 25/23/6 26/24/6 
f 26/24/6 27/16/6 24/15/6 
f 12/4/4 15/14/4 23/18/4 
f 23/18/4 22/17/4 12/4/4 
f 24/20/1 19/19/1 18/2/1 
f 18/2/1 25/1/1 24/20/1 
f 20/22/7 27/21/7 26/25/7 
f 26/25/7 21/26/7 20/22/7 
f 1/23/6 4/4/6 10/27/6 
f 1/23/6 10/27/6 8/14/6 
f 1/23/6 8/14/6 7/28/6 
f 1/23/6 7/28/6 28/24/6 
f 5/14/7 8/12/7 10/8/3 
f 10/8/3 9/7/3 5/14/7 
f 6/5/3 11/26/7 28/25/7 
f 28/25/7 7/6/3 6/5/3 
f 11/10/2 2/9/2 18/9/2 
f 18/9/2 21/10/2 11/10/2 
f 2/2/2 1/1/2 25/1/2 
f 25/1/2 18/2/2 2/2/2 
f 1/23/2 28/24/2 26/24/2 
f 26/24/2 25/23/2 1/23/2 
f 28/25/2 11/26/2 21/26/2 
f 21/26/2 26/25/2 28/25/2 
f 16/20/5 22/19/5 19/19/5 
f 19/19/5 24/20/5 16/20/5 
f 22/17/8 23/18/8 20/18/8 
f 20/18/9 19/17/9 22/17/9 
f 23/22/10 17/21/10 27/21/10 
f 27/21/11 20/22/11 23/22/11 
f 17/16/5 16/15/5 24/15/5 
f 24/15/5 27/16/5 17/16/5 
# 52 faces

