# MagicaVoxel @ Ephtracy

# group
g Pistol

# material
mtllib Pistol.mtl
usemtl palette

# normals
vn -1 0 0
vn 1 0 0
vn 0 0 1
vn 0 0 -1
vn 0 -1 0
vn 0 1 0

# texcoords
vt 0.970703 0.5
vt 0.974609 0.5
vt 0.978516 0.5
vt 0.982422 0.5
vt 0.986328 0.5

# verts
v -1 0 -2.5
v -1 0 -4.5
v -1 1 0.5
v -1 1 -1.5
v -1 1 -2.5
v -1 2 1.5
v -1 2 0.5
v -1 2 -0.5
v -1 2 -1.5
v -1 2 -3.5
v -1 2 -4.5
v -1 3 4.5
v -1 3 1.5
v -1 3 0.5
v -1 3 -0.5
v -1 3 -1.5
v -1 3 -3.5
v -1 3 -4.5
v -1 4 0.5
v -1 4 -1.5
v -1 4 -3.5
v -1 4 -4.5
v -1 5 4.5
v -1 5 0.5
v -1 5 -1.5
v -1 5 -3.5
v 0 1 0.5
v 0 1 -1.5
v 0 2 1.5
v 0 2 0.5
v 0 2 -0.5
v 0 2 -1.5
v 0 3 1.5
v 0 3 0.5
v 0 3 -0.5
v 1 0 -2.5
v 1 0 -4.5
v 1 1 -1.5
v 1 1 -2.5
v 1 2 -3.5
v 1 2 -4.5
v 1 3 4.5
v 1 3 -1.5
v 1 3 -3.5
v 1 3 -4.5
v 1 4 -3.5
v 1 4 -4.5
v 1 5 4.5
v 1 5 -3.5
v -1 3 4.5
v -1 5 4.5
v 1 3 4.5
v 1 5 4.5
v -1 2 1.5
v -1 3 1.5
v 0 2 1.5
v 0 3 1.5
v -1 1 0.5
v -1 2 0.5
v 0 1 0.5
v 0 2 0.5
v -1 2 -1.5
v -1 3 -1.5
v 0 1 -1.5
v 0 2 -1.5
v 1 1 -1.5
v 1 3 -1.5
v -1 0 -2.5
v -1 1 -2.5
v 1 0 -2.5
v 1 1 -2.5
v -1 2 -0.5
v -1 3 -0.5
v 0 2 -0.5
v 0 3 -0.5
v -1 2 -3.5
v -1 3 -3.5
v -1 4 -3.5
v -1 5 -3.5
v 1 2 -3.5
v 1 3 -3.5
v 1 4 -3.5
v 1 5 -3.5
v -1 0 -4.5
v -1 2 -4.5
v -1 3 -4.5
v -1 4 -4.5
v 1 0 -4.5
v 1 2 -4.5
v 1 3 -4.5
v 1 4 -4.5
v -1 0 -2.5
v 1 0 -2.5
v -1 0 -4.5
v 1 0 -4.5
v -1 1 0.5
v 0 1 0.5
v -1 1 -1.5
v 0 1 -1.5
v 1 1 -1.5
v -1 1 -2.5
v 1 1 -2.5
v -1 2 1.5
v 0 2 1.5
v -1 2 0.5
v 0 2 0.5
v -1 3 4.5
v 1 3 4.5
v -1 3 1.5
v 0 3 1.5
v 0 3 0.5
v -1 3 -0.5
v 0 3 -0.5
v -1 3 -1.5
v 1 3 -1.5
v -1 3 -3.5
v 1 3 -3.5
v -1 3 -4.5
v 1 3 -4.5
v -1 2 -0.5
v 0 2 -0.5
v -1 2 -1.5
v 0 2 -1.5
v -1 2 -3.5
v 1 2 -3.5
v -1 2 -4.5
v 1 2 -4.5
v -1 4 -3.5
v 1 4 -3.5
v -1 4 -4.5
v 1 4 -4.5
v -1 5 4.5
v 1 5 4.5
v -1 5 0.5
v 0 5 0.5
v -1 5 -1.5
v 0 5 -1.5
v -1 5 -3.5
v 1 5 -3.5

# faces
f 5/4/1 2/4/1 1/4/1
f 7/5/1 4/5/1 3/5/1
f 8/5/1 4/5/1 7/5/1
f 9/4/1 5/4/1 4/4/1
f 9/5/1 4/5/1 8/5/1
f 10/4/1 2/4/1 5/4/1
f 10/4/1 5/4/1 9/4/1
f 11/4/1 2/4/1 10/4/1
f 13/5/1 7/5/1 6/5/1
f 14/3/1 8/3/1 7/3/1
f 14/5/1 7/5/1 13/5/1
f 15/3/1 8/3/1 14/3/1
f 16/4/1 10/4/1 9/4/1
f 17/4/1 10/4/1 16/4/1
f 19/1/1 13/1/1 12/1/1
f 19/1/1 18/1/1 17/1/1
f 19/1/1 17/1/1 16/1/1
f 19/1/1 16/1/1 15/1/1
f 19/1/1 15/1/1 14/1/1
f 19/1/1 14/1/1 13/1/1
f 20/1/1 18/1/1 19/1/1
f 21/1/1 18/1/1 20/1/1
f 22/1/1 18/1/1 21/1/1
f 23/1/1 19/1/1 12/1/1
f 24/2/1 20/2/1 19/2/1
f 24/1/1 19/1/1 23/1/1
f 25/1/1 21/1/1 20/1/1
f 25/2/1 20/2/1 24/2/1
f 26/1/1 21/1/1 25/1/1
f 27/5/2 28/5/2 30/5/2
f 30/5/2 28/5/2 31/5/2
f 31/5/2 28/5/2 32/5/2
f 29/5/2 30/5/2 33/5/2
f 30/3/2 31/3/2 34/3/2
f 33/5/2 30/5/2 34/5/2
f 34/3/2 31/3/2 35/3/2
f 36/4/2 37/4/2 39/4/2
f 39/4/2 37/4/2 40/4/2
f 38/4/2 39/4/2 40/4/2
f 40/4/2 37/4/2 41/4/2
f 38/4/2 40/4/2 43/4/2
f 43/4/2 40/4/2 44/4/2
f 42/1/2 43/1/2 46/1/2
f 44/1/2 45/1/2 46/1/2
f 43/1/2 44/1/2 46/1/2
f 46/1/2 45/1/2 47/1/2
f 42/1/2 46/1/2 48/1/2
f 48/1/2 46/1/2 49/1/2
f 52/1/3 51/1/3 50/1/3
f 53/1/3 51/1/3 52/1/3
f 56/5/3 55/5/3 54/5/3
f 57/5/3 55/5/3 56/5/3
f 60/5/3 59/5/3 58/5/3
f 61/5/3 59/5/3 60/5/3
f 65/4/3 63/4/3 62/4/3
f 66/4/3 65/4/3 64/4/3
f 67/4/3 63/4/3 65/4/3
f 67/4/3 65/4/3 66/4/3
f 70/4/3 69/4/3 68/4/3
f 71/4/3 69/4/3 70/4/3
f 72/3/4 73/3/4 74/3/4
f 74/3/4 73/3/4 75/3/4
f 76/4/4 77/4/4 80/4/4
f 80/4/4 77/4/4 81/4/4
f 78/1/4 79/1/4 82/1/4
f 82/1/4 79/1/4 83/1/4
f 84/4/4 85/4/4 88/4/4
f 88/4/4 85/4/4 89/4/4
f 86/1/4 87/1/4 90/1/4
f 90/1/4 87/1/4 91/1/4
f 94/4/5 93/4/5 92/4/5
f 95/4/5 93/4/5 94/4/5
f 98/5/5 97/5/5 96/5/5
f 99/5/5 97/5/5 98/5/5
f 101/4/5 99/4/5 98/4/5
f 101/4/5 100/4/5 99/4/5
f 102/4/5 100/4/5 101/4/5
f 105/5/5 104/5/5 103/5/5
f 106/5/5 104/5/5 105/5/5
f 109/1/5 108/1/5 107/1/5
f 110/1/5 108/1/5 109/1/5
f 111/1/5 108/1/5 110/1/5
f 113/1/5 108/1/5 111/1/5
f 114/1/5 113/1/5 112/1/5
f 115/1/5 108/1/5 113/1/5
f 115/1/5 113/1/5 114/1/5
f 118/1/5 117/1/5 116/1/5
f 119/1/5 117/1/5 118/1/5
f 120/5/6 121/5/6 122/5/6
f 122/5/6 121/5/6 123/5/6
f 124/4/6 125/4/6 126/4/6
f 126/4/6 125/4/6 127/4/6
f 128/1/6 129/1/6 130/1/6
f 130/1/6 129/1/6 131/1/6
f 132/1/6 133/1/6 134/1/6
f 134/1/6 133/1/6 135/1/6
f 134/2/6 135/2/6 136/2/6
f 135/1/6 133/1/6 137/1/6
f 136/2/6 135/2/6 137/2/6
f 136/1/6 137/1/6 138/1/6
f 137/1/6 133/1/6 139/1/6
f 138/1/6 137/1/6 139/1/6
