# MagicaVoxel @ Ephtracy

# group
g Shotgun

# material
mtllib Shotgun.mtl
usemtl palette

# normals
vn -1 0 0
vn 1 0 0
vn 0 0 1
vn 0 0 -1
vn 0 -1 0
vn 0 1 0

# texcoords
vt 0.970703 0.5
vt 0.974609 0.5
vt 0.978516 0.5
vt 0.982422 0.5
vt 0.986328 0.5
vt 0.990234 0.5
vt 0.994141 0.5

# verts
v -2 3 5.5
v -2 3 0.5
v -2 4 5.5
v -2 4 0.5
v -1 0 -5.5
v -1 0 -7.5
v -1 1 -2.5
v -1 1 -4.5
v -1 1 -5.5
v -1 2 5.5
v -1 2 0.5
v -1 2 -1.5
v -1 2 -2.5
v -1 2 -3.5
v -1 2 -4.5
v -1 2 -6.5
v -1 2 -7.5
v -1 3 7.5
v -1 3 6.5
v -1 3 5.5
v -1 3 0.5
v -1 3 -0.5
v -1 3 -1.5
v -1 3 -2.5
v -1 3 -3.5
v -1 3 -4.5
v -1 3 -6.5
v -1 3 -7.5
v -1 4 6.5
v -1 4 5.5
v -1 4 0.5
v -1 4 -0.5
v -1 4 -2.5
v -1 4 -4.5
v -1 4 -6.5
v -1 4 -7.5
v -1 5 7.5
v -1 5 -2.5
v -1 5 -4.5
v -1 5 -6.5
v 0 1 -2.5
v 0 1 -4.5
v 0 2 -1.5
v 0 2 -2.5
v 0 2 -3.5
v 0 2 -4.5
v 0 3 -1.5
v 0 3 -2.5
v 0 3 -3.5
v 1 0 -5.5
v 1 0 -7.5
v 1 1 -4.5
v 1 1 -5.5
v 1 2 5.5
v 1 2 0.5
v 1 2 -6.5
v 1 2 -7.5
v 1 3 7.5
v 1 3 6.5
v 1 3 5.5
v 1 3 0.5
v 1 3 -0.5
v 1 3 -3.5
v 1 3 -4.5
v 1 3 -6.5
v 1 3 -7.5
v 1 4 6.5
v 1 4 5.5
v 1 4 0.5
v 1 4 -0.5
v 1 4 -3.5
v 1 4 -6.5
v 1 4 -7.5
v 1 5 7.5
v 1 5 -0.5
v 1 5 -3.5
v 1 5 -6.5
v 2 3 5.5
v 2 3 0.5
v 2 3 -0.5
v 2 3 -3.5
v 2 4 5.5
v 2 4 0.5
v 2 4 -0.5
v 2 4 -3.5
v 2 5 -0.5
v 2 5 -3.5
v -1 3 7.5
v -1 5 7.5
v 1 3 7.5
v 1 5 7.5
v -2 3 5.5
v -2 4 5.5
v -1 2 5.5
v -1 3 5.5
v -1 4 5.5
v 1 2 5.5
v 1 3 5.5
v 1 4 5.5
v 2 3 5.5
v 2 4 5.5
v 1 3 -0.5
v 1 4 -0.5
v 1 5 -0.5
v 2 3 -0.5
v 2 4 -0.5
v 2 5 -0.5
v -1 2 -1.5
v -1 3 -1.5
v 0 2 -1.5
v 0 3 -1.5
v -1 1 -2.5
v -1 2 -2.5
v 0 1 -2.5
v 0 2 -2.5
v -1 2 -4.5
v -1 3 -4.5
v 0 1 -4.5
v 0 2 -4.5
v 1 1 -4.5
v 1 3 -4.5
v -1 0 -5.5
v -1 1 -5.5
v 1 0 -5.5
v 1 1 -5.5
v -2 3 0.5
v -2 4 0.5
v -1 2 0.5
v -1 3 0.5
v -1 4 0.5
v 1 2 0.5
v 1 3 0.5
v 1 4 0.5
v 2 3 0.5
v 2 4 0.5
v -1 2 -3.5
v -1 3 -3.5
v 0 2 -3.5
v 0 3 -3.5
v 1 3 -3.5
v 1 4 -3.5
v 1 5 -3.5
v 2 3 -3.5
v 2 4 -3.5
v 2 5 -3.5
v -1 2 -6.5
v -1 3 -6.5
v -1 4 -6.5
v -1 5 -6.5
v 1 2 -6.5
v 1 3 -6.5
v 1 4 -6.5
v 1 5 -6.5
v -1 0 -7.5
v -1 2 -7.5
v -1 3 -7.5
v -1 4 -7.5
v 1 0 -7.5
v 1 2 -7.5
v 1 3 -7.5
v 1 4 -7.5
v -1 0 -5.5
v 1 0 -5.5
v -1 0 -7.5
v 1 0 -7.5
v -1 1 -2.5
v 0 1 -2.5
v -1 1 -4.5
v 0 1 -4.5
v 1 1 -4.5
v -1 1 -5.5
v 1 1 -5.5
v -1 2 5.5
v 1 2 5.5
v -1 2 0.5
v 1 2 0.5
v -1 2 -1.5
v 0 2 -1.5
v -1 2 -2.5
v 0 2 -2.5
v -1 3 7.5
v 1 3 7.5
v -1 3 6.5
v 1 3 6.5
v -2 3 5.5
v -1 3 5.5
v 1 3 5.5
v 2 3 5.5
v -2 3 0.5
v -1 3 0.5
v 1 3 0.5
v 2 3 0.5
v -1 3 -0.5
v 0 3 -0.5
v 1 3 -0.5
v 2 3 -0.5
v -1 3 -1.5
v 0 3 -1.5
v 0 3 -2.5
v -1 3 -3.5
v 0 3 -3.5
v 1 3 -3.5
v 2 3 -3.5
v -1 3 -4.5
v 1 3 -4.5
v -1 3 -6.5
v 1 3 -6.5
v -1 3 -7.5
v 1 3 -7.5
v -1 2 -3.5
v 0 2 -3.5
v -1 2 -4.5
v 0 2 -4.5
v -1 2 -6.5
v 1 2 -6.5
v -1 2 -7.5
v 1 2 -7.5
v -2 4 5.5
v -1 4 5.5
v 1 4 5.5
v 2 4 5.5
v -2 4 0.5
v -1 4 0.5
v 1 4 0.5
v 2 4 0.5
v -1 4 -6.5
v 1 4 -6.5
v -1 4 -7.5
v 1 4 -7.5
v -1 5 7.5
v 1 5 7.5
v 1 5 -0.5
v 2 5 -0.5
v -1 5 -2.5
v 0 5 -2.5
v 1 5 -3.5
v 2 5 -3.5
v -1 5 -4.5
v 0 5 -4.5
v -1 5 -6.5
v 1 5 -6.5

# faces
f 3/2/1 2/2/1 1/2/1
f 4/2/1 2/2/1 3/2/1
f 9/7/1 6/7/1 5/7/1
f 13/6/1 8/6/1 7/6/1
f 14/6/1 8/6/1 13/6/1
f 15/7/1 9/7/1 8/7/1
f 15/6/1 8/6/1 14/6/1
f 16/7/1 6/7/1 9/7/1
f 16/7/1 9/7/1 15/7/1
f 17/7/1 6/7/1 16/7/1
f 20/2/1 11/2/1 10/2/1
f 21/2/1 11/2/1 20/2/1
f 23/6/1 13/6/1 12/6/1
f 24/3/1 14/3/1 13/3/1
f 24/6/1 13/6/1 23/6/1
f 25/3/1 14/3/1 24/3/1
f 26/7/1 16/7/1 15/7/1
f 27/7/1 16/7/1 26/7/1
f 29/1/1 19/1/1 18/1/1
f 29/7/1 20/7/1 19/7/1
f 30/7/1 20/7/1 29/7/1
f 31/7/1 22/7/1 21/7/1
f 32/1/1 28/1/1 27/1/1
f 32/1/1 23/1/1 22/1/1
f 32/7/1 22/7/1 31/7/1
f 32/1/1 25/1/1 24/1/1
f 32/1/1 27/1/1 26/1/1
f 32/1/1 26/1/1 25/1/1
f 32/1/1 24/1/1 23/1/1
f 33/1/1 28/1/1 32/1/1
f 34/1/1 28/1/1 33/1/1
f 35/1/1 28/1/1 34/1/1
f 36/1/1 28/1/1 35/1/1
f 37/1/1 31/1/1 30/1/1
f 37/1/1 30/1/1 29/1/1
f 37/1/1 29/1/1 18/1/1
f 37/1/1 32/1/1 31/1/1
f 37/1/1 33/1/1 32/1/1
f 38/3/1 34/3/1 33/3/1
f 38/1/1 33/1/1 37/1/1
f 39/1/1 35/1/1 34/1/1
f 39/3/1 34/3/1 38/3/1
f 40/1/1 35/1/1 39/1/1
f 41/6/2 42/6/2 44/6/2
f 44/6/2 42/6/2 45/6/2
f 45/6/2 42/6/2 46/6/2
f 43/6/2 44/6/2 47/6/2
f 44/3/2 45/3/2 48/3/2
f 47/6/2 44/6/2 48/6/2
f 48/3/2 45/3/2 49/3/2
f 50/7/2 51/7/2 53/7/2
f 53/7/2 51/7/2 56/7/2
f 52/7/2 53/7/2 56/7/2
f 56/7/2 51/7/2 57/7/2
f 54/2/2 55/2/2 60/2/2
f 60/2/2 55/2/2 61/2/2
f 52/7/2 56/7/2 64/7/2
f 64/7/2 56/7/2 65/7/2
f 58/1/2 59/1/2 67/1/2
f 59/7/2 60/7/2 67/7/2
f 67/7/2 60/7/2 68/7/2
f 61/7/2 62/7/2 69/7/2
f 69/7/2 62/7/2 70/7/2
f 65/1/2 66/1/2 71/1/2
f 64/1/2 65/1/2 71/1/2
f 63/1/2 64/1/2 71/1/2
f 71/1/2 66/1/2 72/1/2
f 72/1/2 66/1/2 73/1/2
f 69/1/2 70/1/2 74/1/2
f 67/1/2 68/1/2 74/1/2
f 68/1/2 69/1/2 74/1/2
f 58/1/2 67/1/2 74/1/2
f 74/1/2 70/1/2 75/1/2
f 71/1/2 72/1/2 76/1/2
f 76/1/2 72/1/2 77/1/2
f 78/2/2 79/2/2 82/2/2
f 82/2/2 79/2/2 83/2/2
f 80/4/2 81/4/2 84/4/2
f 84/4/2 81/4/2 85/4/2
f 84/5/2 85/5/2 86/5/2
f 86/5/2 85/5/2 87/5/2
f 90/1/3 89/1/3 88/1/3
f 91/1/3 89/1/3 90/1/3
f 95/2/3 93/2/3 92/2/3
f 96/2/3 93/2/3 95/2/3
f 97/2/3 95/2/3 94/2/3
f 98/2/3 95/2/3 97/2/3
f 100/2/3 99/2/3 98/2/3
f 101/2/3 99/2/3 100/2/3
f 105/4/3 103/4/3 102/4/3
f 106/5/3 104/5/3 103/5/3
f 106/4/3 103/4/3 105/4/3
f 107/5/3 104/5/3 106/5/3
f 110/6/3 109/6/3 108/6/3
f 111/6/3 109/6/3 110/6/3
f 114/6/3 113/6/3 112/6/3
f 115/6/3 113/6/3 114/6/3
f 119/7/3 117/7/3 116/7/3
f 120/7/3 119/7/3 118/7/3
f 121/7/3 117/7/3 119/7/3
f 121/7/3 119/7/3 120/7/3
f 124/7/3 123/7/3 122/7/3
f 125/7/3 123/7/3 124/7/3
f 126/2/4 127/2/4 129/2/4
f 129/2/4 127/2/4 130/2/4
f 128/2/4 129/2/4 131/2/4
f 131/2/4 129/2/4 132/2/4
f 132/2/4 133/2/4 134/2/4
f 134/2/4 133/2/4 135/2/4
f 136/3/4 137/3/4 138/3/4
f 138/3/4 137/3/4 139/3/4
f 140/4/4 141/4/4 143/4/4
f 141/5/4 142/5/4 144/5/4
f 143/4/4 141/4/4 144/4/4
f 144/5/4 142/5/4 145/5/4
f 146/7/4 147/7/4 150/7/4
f 150/7/4 147/7/4 151/7/4
f 148/1/4 149/1/4 152/1/4
f 152/1/4 149/1/4 153/1/4
f 154/7/4 155/7/4 158/7/4
f 158/7/4 155/7/4 159/7/4
f 156/1/4 157/1/4 160/1/4
f 160/1/4 157/1/4 161/1/4
f 164/7/5 163/7/5 162/7/5
f 165/7/5 163/7/5 164/7/5
f 168/6/5 167/6/5 166/6/5
f 169/6/5 167/6/5 168/6/5
f 171/7/5 169/7/5 168/7/5
f 171/7/5 170/7/5 169/7/5
f 172/7/5 170/7/5 171/7/5
f 175/2/5 174/2/5 173/2/5
f 176/2/5 174/2/5 175/2/5
f 179/6/5 178/6/5 177/6/5
f 180/6/5 178/6/5 179/6/5
f 183/1/5 182/1/5 181/1/5
f 184/1/5 182/1/5 183/1/5
f 186/7/5 184/7/5 183/7/5
f 187/7/5 184/7/5 186/7/5
f 189/2/5 186/2/5 185/2/5
f 190/2/5 186/2/5 189/2/5
f 191/2/5 188/2/5 187/2/5
f 192/2/5 188/2/5 191/2/5
f 193/7/5 191/7/5 190/7/5
f 194/7/5 191/7/5 193/7/5
f 195/7/5 191/7/5 194/7/5
f 197/1/5 194/1/5 193/1/5
f 198/7/5 195/7/5 194/7/5
f 198/1/5 194/1/5 197/1/5
f 199/7/5 195/7/5 198/7/5
f 201/7/5 195/7/5 199/7/5
f 202/4/5 196/4/5 195/4/5
f 202/7/5 195/7/5 201/7/5
f 203/4/5 196/4/5 202/4/5
f 204/1/5 201/1/5 200/1/5
f 204/1/5 202/1/5 201/1/5
f 205/1/5 202/1/5 204/1/5
f 208/1/5 207/1/5 206/1/5
f 209/1/5 207/1/5 208/1/5
f 210/6/6 211/6/6 212/6/6
f 212/6/6 211/6/6 213/6/6
f 214/7/6 215/7/6 216/7/6
f 216/7/6 215/7/6 217/7/6
f 218/2/6 219/2/6 222/2/6
f 222/2/6 219/2/6 223/2/6
f 220/2/6 221/2/6 224/2/6
f 224/2/6 221/2/6 225/2/6
f 226/1/6 227/1/6 228/1/6
f 228/1/6 227/1/6 229/1/6
f 230/1/6 231/1/6 232/1/6
f 230/1/6 232/1/6 234/1/6
f 234/1/6 232/1/6 235/1/6
f 232/5/6 233/5/6 236/5/6
f 235/1/6 232/1/6 236/1/6
f 236/5/6 233/5/6 237/5/6
f 234/3/6 235/3/6 238/3/6
f 235/1/6 236/1/6 239/1/6
f 238/3/6 235/3/6 239/3/6
f 238/1/6 239/1/6 240/1/6
f 239/1/6 236/1/6 241/1/6
f 240/1/6 239/1/6 241/1/6
